<svg width="49" height="48" viewBox="0 0 49 48" fill="none" xmlns="http://www.w3.org/2000/svg">
<g clip-path="url(#clip0_55_781)">
<path d="M2.29297 2H10.293L15.653 28.78C15.8359 29.7008 16.3368 30.5279 17.0681 31.1166C17.7993 31.7053 18.7144 32.018 19.653 32H39.093C40.0316 32.018 40.9466 31.7053 41.6779 31.1166C42.4092 30.5279 42.9101 29.7008 43.093 28.78L46.293 12H12.293M20.293 42C20.293 43.1046 19.3975 44 18.293 44C17.1884 44 16.293 43.1046 16.293 42C16.293 40.8954 17.1884 40 18.293 40C19.3975 40 20.293 40.8954 20.293 42ZM42.293 42C42.293 43.1046 41.3975 44 40.293 44C39.1884 44 38.293 43.1046 38.293 42C38.293 40.8954 39.1884 40 40.293 40C41.3975 40 42.293 40.8954 42.293 42Z" stroke="white" stroke-width="4" stroke-linecap="round" stroke-linejoin="round"/>
</g>
<defs>
<clipPath id="clip0_55_781">
<rect width="48" height="48" fill="white" transform="translate(0.292969)"/>
</clipPath>
</defs>
</svg>
