<svg width="46" height="47" viewBox="0 0 46 47" fill="none" xmlns="http://www.w3.org/2000/svg">
<path d="M45.9934 23.6028C45.9934 35.2193 37.3829 44.8228 26.1971 46.3812C25.1512 46.5263 24.0812 46.602 22.995 46.602C21.7412 46.602 20.51 46.5021 19.311 46.3087C8.36051 44.5456 -0.00341797 35.05 -0.00341797 23.6028C-0.00341797 10.9002 10.2944 0.60202 22.9966 0.60202C35.6988 0.60202 45.9966 10.9002 45.9966 23.6028H45.9934Z" fill="white"/>
<path d="M26.1975 19.071V24.0815H32.3955L31.4141 30.8309H26.1975V46.3813C25.1516 46.5263 24.0816 46.602 22.9954 46.602C21.7416 46.602 20.5104 46.5021 19.3114 46.3087V30.8309H13.5952V24.0815H19.3114V17.951C19.3114 14.1476 22.3943 11.063 26.1991 11.063V11.0662C26.2104 11.0662 26.2201 11.063 26.2314 11.063H32.3971V16.9002H28.3683C27.1709 16.9002 26.1991 17.872 26.1991 19.0694L26.1975 19.071Z" fill="#326B85"/>
</svg>
