<svg width="45" height="45" viewBox="0 0 45 45" fill="none" xmlns="http://www.w3.org/2000/svg">
<path d="M33.8044 11.8104H33.8244M12.8044 2.81041H32.8044C38.3273 2.81041 42.8044 7.28756 42.8044 12.8104V32.8104C42.8044 38.3333 38.3273 42.8104 32.8044 42.8104H12.8044C7.2816 42.8104 2.80444 38.3333 2.80444 32.8104V12.8104C2.80444 7.28756 7.2816 2.81041 12.8044 2.81041ZM30.8044 21.5504C31.0513 23.2149 30.767 24.9148 29.992 26.4084C29.217 27.902 27.9907 29.1132 26.4877 29.8698C24.9847 30.6263 23.2813 30.8896 21.62 30.6223C19.9587 30.3549 18.424 29.5706 17.2341 28.3807C16.0443 27.1909 15.2599 25.6562 14.9926 23.9948C14.7252 22.3335 14.9886 20.6302 15.7451 19.1272C16.5016 17.6241 17.7128 16.3979 19.2064 15.6229C20.7 14.8479 22.4 14.5636 24.0644 14.8104C25.7623 15.0622 27.3341 15.8533 28.5478 17.067C29.7615 18.2807 30.5527 19.8526 30.8044 21.5504Z" stroke="white" stroke-width="4" stroke-linecap="round" stroke-linejoin="round"/>
</svg>
